<svg width="101" height="100" viewBox="0 0 101 100" fill="none" xmlns="http://www.w3.org/2000/svg">
<path d="M50.7974 0L100.608 25V75L50.7974 100L0.987305 75V25L50.7974 0Z" fill="#151313"/>
<path d="M100.608 25V75L50.7974 100L0.987305 75V25L50.7974 0L100.608 25ZM4.43825 26.7583V73.2416L50.7974 96.5095L97.1566 73.2416V26.7583L50.7974 3.49037L4.43825 26.7583Z" fill="#FFA84A"/>
<path d="M45.3334 79.09C44.857 78.3653 45.1397 77.4387 45.965 77.0203L97.7675 50.7576C98.5928 50.3392 99.6481 50.5875 100.125 51.3122V51.3122C100.601 52.0369 100.318 52.9636 99.493 53.3819L47.6905 79.6446C46.8652 80.063 45.8099 79.8147 45.3334 79.09V79.09Z" fill="#FFA84A"/>
<path d="M2.04474 49.463C1.56827 48.7384 1.85103 47.8117 2.67631 47.3933L54.4788 21.1307C55.3041 20.7123 56.3594 20.9606 56.8359 21.6853V21.6853C57.3124 22.4099 57.0296 23.3366 56.2043 23.755L4.40178 50.0176C3.5765 50.436 2.52122 50.1877 2.04474 49.463V49.463Z" fill="#FFA84A"/>
<path d="M1.21887 48.4849H100.491V51.5152H1.21887V48.4849Z" fill="#FFA84A"/>
<path d="M43.1792 74.9469C43.6016 74.1968 44.6365 73.8894 45.4907 74.2603C46.3449 74.6312 46.695 75.5399 46.2726 76.29L45.8113 77.1094L53.8266 73.0458L53.8654 73.0267C54.6847 72.6352 55.7146 72.887 56.1836 73.6004C56.6527 74.3137 56.386 75.2228 55.5903 75.6501L55.5521 75.6701L47.5367 79.7337L48.5755 79.7925L48.6199 79.7955C49.5488 79.8689 50.2467 80.58 50.1863 81.402C50.1259 82.224 49.3298 82.8506 48.3978 82.8185L48.3534 82.8165L41.6277 82.4356C41.0519 82.403 40.5329 82.1199 40.2444 81.6812C39.9559 81.2424 39.9363 80.7062 40.192 80.2521L43.1792 74.9469Z" fill="#87ECAF"/>
<path d="M52.2233 19.2331C52.2837 18.4111 53.0798 17.7845 54.0118 17.8165L54.0562 17.8186L60.782 18.1995C61.3577 18.2321 61.8768 18.5152 62.1652 18.9539C62.4537 19.3926 62.4733 19.9289 62.2176 20.383L59.2304 25.6882C58.808 26.4383 57.7732 26.7457 56.9189 26.3748C56.0647 26.0039 55.7146 25.0952 56.137 24.3451L56.5984 23.5257L48.583 27.5893C47.7578 28.0077 46.7025 27.7594 46.226 27.0347C45.7495 26.31 46.0323 25.3834 46.8576 24.965L54.8729 20.9014L53.8341 20.8426L53.7897 20.8396C52.8608 20.7662 52.1629 20.0551 52.2233 19.2331Z" fill="white"/>
</svg>
